<mxfile host="app.diagrams.net" modified="2022-04-10T06:22:17.668Z" agent="5.0 (Windows)" etag="xkomAzgxBBScQRfJPWqT" version="17.4.2" type="github">
  <diagram id="8k_-opimTpagwBCu9Z-Q" name="Page-1">
    <mxGraphModel dx="2065" dy="1078" grid="1" gridSize="10" guides="1" tooltips="1" connect="1" arrows="1" fold="1" page="1" pageScale="1" pageWidth="850" pageHeight="1100" math="0" shadow="0">
      <root>
        <mxCell id="0" />
        <mxCell id="1" parent="0" />
        <mxCell id="4IQFh7qT-0xXZUofBKF6-1" value="FAKULTAS" style="rounded=0;whiteSpace=wrap;html=1;hachureGap=4;fontSize=20;" vertex="1" parent="1">
          <mxGeometry x="-20" y="370" width="120" height="60" as="geometry" />
        </mxCell>
        <mxCell id="4IQFh7qT-0xXZUofBKF6-16" style="edgeStyle=none;curved=1;rounded=0;orthogonalLoop=1;jettySize=auto;html=1;entryX=0;entryY=0.5;entryDx=0;entryDy=0;fontSize=22;endArrow=none;endFill=0;startSize=14;endSize=14;sourcePerimeterSpacing=8;targetPerimeterSpacing=8;exitX=1;exitY=0.5;exitDx=0;exitDy=0;" edge="1" parent="1" source="4IQFh7qT-0xXZUofBKF6-2" target="4IQFh7qT-0xXZUofBKF6-11">
          <mxGeometry relative="1" as="geometry" />
        </mxCell>
        <mxCell id="4IQFh7qT-0xXZUofBKF6-2" value="DAFTAR" style="rounded=0;whiteSpace=wrap;html=1;hachureGap=4;fontSize=20;" vertex="1" parent="1">
          <mxGeometry x="430" y="630" width="120" height="60" as="geometry" />
        </mxCell>
        <mxCell id="4IQFh7qT-0xXZUofBKF6-19" style="edgeStyle=none;curved=1;rounded=0;orthogonalLoop=1;jettySize=auto;html=1;entryX=0;entryY=0.5;entryDx=0;entryDy=0;fontSize=22;endArrow=none;endFill=0;startSize=14;endSize=14;sourcePerimeterSpacing=8;targetPerimeterSpacing=8;exitX=1;exitY=0.5;exitDx=0;exitDy=0;" edge="1" parent="1" source="4IQFh7qT-0xXZUofBKF6-3" target="4IQFh7qT-0xXZUofBKF6-10">
          <mxGeometry relative="1" as="geometry" />
        </mxCell>
        <mxCell id="4IQFh7qT-0xXZUofBKF6-3" value="UNIVERSITAS" style="rounded=0;whiteSpace=wrap;html=1;hachureGap=4;fontSize=20;" vertex="1" parent="1">
          <mxGeometry x="430" y="370" width="140" height="60" as="geometry" />
        </mxCell>
        <mxCell id="4IQFh7qT-0xXZUofBKF6-4" value="USER" style="rounded=0;whiteSpace=wrap;html=1;hachureGap=4;fontSize=20;" vertex="1" parent="1">
          <mxGeometry x="650" y="500" width="120" height="60" as="geometry" />
        </mxCell>
        <mxCell id="4IQFh7qT-0xXZUofBKF6-7" value="ADMIN" style="rounded=0;whiteSpace=wrap;html=1;hachureGap=4;fontSize=20;" vertex="1" parent="1">
          <mxGeometry x="-20" y="630" width="120" height="60" as="geometry" />
        </mxCell>
        <mxCell id="4IQFh7qT-0xXZUofBKF6-14" style="edgeStyle=none;curved=1;rounded=0;orthogonalLoop=1;jettySize=auto;html=1;entryX=0;entryY=0.5;entryDx=0;entryDy=0;fontSize=22;endArrow=none;endFill=0;startSize=14;endSize=14;sourcePerimeterSpacing=8;targetPerimeterSpacing=8;exitX=1;exitY=0.5;exitDx=0;exitDy=0;" edge="1" parent="1" source="4IQFh7qT-0xXZUofBKF6-8" target="4IQFh7qT-0xXZUofBKF6-2">
          <mxGeometry relative="1" as="geometry" />
        </mxCell>
        <mxCell id="4IQFh7qT-0xXZUofBKF6-15" style="edgeStyle=none;curved=1;rounded=0;orthogonalLoop=1;jettySize=auto;html=1;fontSize=22;endArrow=none;endFill=0;startSize=14;endSize=14;sourcePerimeterSpacing=8;targetPerimeterSpacing=8;entryX=1;entryY=0.5;entryDx=0;entryDy=0;exitX=0;exitY=0.5;exitDx=0;exitDy=0;" edge="1" parent="1" source="4IQFh7qT-0xXZUofBKF6-8" target="4IQFh7qT-0xXZUofBKF6-7">
          <mxGeometry relative="1" as="geometry" />
        </mxCell>
        <mxCell id="4IQFh7qT-0xXZUofBKF6-8" value="Mengirim" style="rhombus;whiteSpace=wrap;html=1;hachureGap=4;fontSize=22;" vertex="1" parent="1">
          <mxGeometry x="210" y="620" width="110" height="80" as="geometry" />
        </mxCell>
        <mxCell id="4IQFh7qT-0xXZUofBKF6-12" style="edgeStyle=none;curved=1;rounded=0;orthogonalLoop=1;jettySize=auto;html=1;entryX=1;entryY=0.5;entryDx=0;entryDy=0;fontSize=22;endArrow=none;startSize=14;endSize=14;sourcePerimeterSpacing=8;targetPerimeterSpacing=8;endFill=0;exitX=0;exitY=0.5;exitDx=0;exitDy=0;" edge="1" parent="1" source="4IQFh7qT-0xXZUofBKF6-9" target="4IQFh7qT-0xXZUofBKF6-1">
          <mxGeometry relative="1" as="geometry" />
        </mxCell>
        <mxCell id="4IQFh7qT-0xXZUofBKF6-13" style="edgeStyle=none;curved=1;rounded=0;orthogonalLoop=1;jettySize=auto;html=1;entryX=0;entryY=0.5;entryDx=0;entryDy=0;fontSize=22;endArrow=none;endFill=0;startSize=14;endSize=14;sourcePerimeterSpacing=8;targetPerimeterSpacing=8;exitX=1;exitY=0.5;exitDx=0;exitDy=0;" edge="1" parent="1" source="4IQFh7qT-0xXZUofBKF6-9" target="4IQFh7qT-0xXZUofBKF6-3">
          <mxGeometry relative="1" as="geometry" />
        </mxCell>
        <mxCell id="4IQFh7qT-0xXZUofBKF6-9" value="Memiliki" style="rhombus;whiteSpace=wrap;html=1;hachureGap=4;fontSize=22;" vertex="1" parent="1">
          <mxGeometry x="210" y="360" width="110" height="80" as="geometry" />
        </mxCell>
        <mxCell id="4IQFh7qT-0xXZUofBKF6-18" style="edgeStyle=none;curved=1;rounded=0;orthogonalLoop=1;jettySize=auto;html=1;entryX=0.5;entryY=0;entryDx=0;entryDy=0;fontSize=22;endArrow=none;endFill=0;startSize=14;endSize=14;sourcePerimeterSpacing=8;targetPerimeterSpacing=8;exitX=0.5;exitY=1;exitDx=0;exitDy=0;" edge="1" parent="1" source="4IQFh7qT-0xXZUofBKF6-10" target="4IQFh7qT-0xXZUofBKF6-4">
          <mxGeometry relative="1" as="geometry" />
        </mxCell>
        <mxCell id="4IQFh7qT-0xXZUofBKF6-10" value="Memilih" style="rhombus;whiteSpace=wrap;html=1;hachureGap=4;fontSize=22;" vertex="1" parent="1">
          <mxGeometry x="655" y="360" width="110" height="80" as="geometry" />
        </mxCell>
        <mxCell id="4IQFh7qT-0xXZUofBKF6-17" style="edgeStyle=none;curved=1;rounded=0;orthogonalLoop=1;jettySize=auto;html=1;fontSize=22;endArrow=none;endFill=0;startSize=14;endSize=14;sourcePerimeterSpacing=8;targetPerimeterSpacing=8;entryX=0.5;entryY=1;entryDx=0;entryDy=0;exitX=0.5;exitY=0;exitDx=0;exitDy=0;" edge="1" parent="1" source="4IQFh7qT-0xXZUofBKF6-11" target="4IQFh7qT-0xXZUofBKF6-4">
          <mxGeometry relative="1" as="geometry" />
        </mxCell>
        <mxCell id="4IQFh7qT-0xXZUofBKF6-11" value="Mengisi" style="rhombus;whiteSpace=wrap;html=1;hachureGap=4;fontSize=22;" vertex="1" parent="1">
          <mxGeometry x="655" y="620" width="110" height="80" as="geometry" />
        </mxCell>
        <mxCell id="4IQFh7qT-0xXZUofBKF6-20" value="" style="endArrow=none;html=1;rounded=0;fontSize=22;startSize=14;endSize=14;sourcePerimeterSpacing=8;targetPerimeterSpacing=8;curved=1;exitX=1;exitY=0;exitDx=0;exitDy=0;entryX=0;entryY=1;entryDx=0;entryDy=0;" edge="1" parent="1" source="4IQFh7qT-0xXZUofBKF6-7" target="4IQFh7qT-0xXZUofBKF6-21">
          <mxGeometry width="50" height="50" relative="1" as="geometry">
            <mxPoint x="430" y="530" as="sourcePoint" />
            <mxPoint x="230" y="530" as="targetPoint" />
          </mxGeometry>
        </mxCell>
        <mxCell id="4IQFh7qT-0xXZUofBKF6-21" value="Memberi" style="rhombus;whiteSpace=wrap;html=1;hachureGap=4;fontSize=22;" vertex="1" parent="1">
          <mxGeometry x="205" y="490" width="120" height="80" as="geometry" />
        </mxCell>
        <mxCell id="4IQFh7qT-0xXZUofBKF6-22" value="" style="endArrow=none;html=1;rounded=0;fontSize=22;startSize=14;endSize=14;sourcePerimeterSpacing=8;targetPerimeterSpacing=8;curved=1;exitX=1;exitY=0;exitDx=0;exitDy=0;entryX=0;entryY=0.75;entryDx=0;entryDy=0;" edge="1" parent="1" source="4IQFh7qT-0xXZUofBKF6-21" target="4IQFh7qT-0xXZUofBKF6-3">
          <mxGeometry width="50" height="50" relative="1" as="geometry">
            <mxPoint x="430" y="530" as="sourcePoint" />
            <mxPoint x="480" y="480" as="targetPoint" />
          </mxGeometry>
        </mxCell>
        <mxCell id="4IQFh7qT-0xXZUofBKF6-23" value="foto" style="ellipse;whiteSpace=wrap;html=1;hachureGap=4;fontSize=20;" vertex="1" parent="1">
          <mxGeometry x="650" y="730" width="120" height="80" as="geometry" />
        </mxCell>
        <mxCell id="4IQFh7qT-0xXZUofBKF6-24" value="ID_user" style="ellipse;whiteSpace=wrap;html=1;hachureGap=4;fontSize=20;" vertex="1" parent="1">
          <mxGeometry x="520" y="1050" width="120" height="80" as="geometry" />
        </mxCell>
        <mxCell id="4IQFh7qT-0xXZUofBKF6-25" value="" style="ellipse;whiteSpace=wrap;html=1;hachureGap=4;fontSize=20;" vertex="1" parent="1">
          <mxGeometry x="860" y="800" width="120" height="80" as="geometry" />
        </mxCell>
        <mxCell id="4IQFh7qT-0xXZUofBKF6-26" value="" style="ellipse;whiteSpace=wrap;html=1;hachureGap=4;fontSize=20;" vertex="1" parent="1">
          <mxGeometry x="860" y="190" width="120" height="80" as="geometry" />
        </mxCell>
        <mxCell id="4IQFh7qT-0xXZUofBKF6-27" value="" style="ellipse;whiteSpace=wrap;html=1;hachureGap=4;fontSize=20;" vertex="1" parent="1">
          <mxGeometry x="990" y="730" width="120" height="80" as="geometry" />
        </mxCell>
        <mxCell id="4IQFh7qT-0xXZUofBKF6-28" value="" style="ellipse;whiteSpace=wrap;html=1;hachureGap=4;fontSize=20;" vertex="1" parent="1">
          <mxGeometry x="980" y="270" width="120" height="80" as="geometry" />
        </mxCell>
        <mxCell id="4IQFh7qT-0xXZUofBKF6-29" value="" style="ellipse;whiteSpace=wrap;html=1;hachureGap=4;fontSize=20;" vertex="1" parent="1">
          <mxGeometry x="1010" y="370" width="120" height="80" as="geometry" />
        </mxCell>
        <mxCell id="4IQFh7qT-0xXZUofBKF6-30" value="" style="ellipse;whiteSpace=wrap;html=1;hachureGap=4;fontSize=20;" vertex="1" parent="1">
          <mxGeometry x="1010" y="490" width="120" height="80" as="geometry" />
        </mxCell>
        <mxCell id="4IQFh7qT-0xXZUofBKF6-31" value="" style="ellipse;whiteSpace=wrap;html=1;hachureGap=4;fontSize=20;" vertex="1" parent="1">
          <mxGeometry x="1010" y="610" width="120" height="80" as="geometry" />
        </mxCell>
        <mxCell id="4IQFh7qT-0xXZUofBKF6-34" value="" style="endArrow=none;html=1;rounded=0;fontSize=20;startSize=14;endSize=14;sourcePerimeterSpacing=8;targetPerimeterSpacing=8;curved=1;entryX=0.5;entryY=1;entryDx=0;entryDy=0;exitX=1;exitY=0;exitDx=0;exitDy=0;" edge="1" parent="1" source="4IQFh7qT-0xXZUofBKF6-4" target="4IQFh7qT-0xXZUofBKF6-26">
          <mxGeometry width="50" height="50" relative="1" as="geometry">
            <mxPoint x="800" y="480" as="sourcePoint" />
            <mxPoint x="850" y="430" as="targetPoint" />
          </mxGeometry>
        </mxCell>
        <mxCell id="4IQFh7qT-0xXZUofBKF6-35" value="" style="endArrow=none;html=1;rounded=0;fontSize=20;startSize=14;endSize=14;sourcePerimeterSpacing=8;targetPerimeterSpacing=8;curved=1;entryX=0;entryY=0.5;entryDx=0;entryDy=0;exitX=1;exitY=0.5;exitDx=0;exitDy=0;" edge="1" parent="1" source="4IQFh7qT-0xXZUofBKF6-4" target="4IQFh7qT-0xXZUofBKF6-28">
          <mxGeometry width="50" height="50" relative="1" as="geometry">
            <mxPoint x="810" y="490" as="sourcePoint" />
            <mxPoint x="930" y="280" as="targetPoint" />
          </mxGeometry>
        </mxCell>
        <mxCell id="4IQFh7qT-0xXZUofBKF6-36" value="" style="endArrow=none;html=1;rounded=0;fontSize=20;startSize=14;endSize=14;sourcePerimeterSpacing=8;targetPerimeterSpacing=8;curved=1;entryX=0;entryY=0.5;entryDx=0;entryDy=0;exitX=1;exitY=0.5;exitDx=0;exitDy=0;" edge="1" parent="1" source="4IQFh7qT-0xXZUofBKF6-4" target="4IQFh7qT-0xXZUofBKF6-29">
          <mxGeometry width="50" height="50" relative="1" as="geometry">
            <mxPoint x="820" y="500" as="sourcePoint" />
            <mxPoint x="940" y="290" as="targetPoint" />
          </mxGeometry>
        </mxCell>
        <mxCell id="4IQFh7qT-0xXZUofBKF6-37" value="" style="endArrow=none;html=1;rounded=0;fontSize=20;startSize=14;endSize=14;sourcePerimeterSpacing=8;targetPerimeterSpacing=8;curved=1;entryX=0;entryY=0.5;entryDx=0;entryDy=0;exitX=1;exitY=0.5;exitDx=0;exitDy=0;" edge="1" parent="1" source="4IQFh7qT-0xXZUofBKF6-4" target="4IQFh7qT-0xXZUofBKF6-30">
          <mxGeometry width="50" height="50" relative="1" as="geometry">
            <mxPoint x="830" y="510" as="sourcePoint" />
            <mxPoint x="950" y="300" as="targetPoint" />
          </mxGeometry>
        </mxCell>
        <mxCell id="4IQFh7qT-0xXZUofBKF6-38" value="" style="endArrow=none;html=1;rounded=0;fontSize=20;startSize=14;endSize=14;sourcePerimeterSpacing=8;targetPerimeterSpacing=8;curved=1;entryX=0.5;entryY=0;entryDx=0;entryDy=0;exitX=1;exitY=1;exitDx=0;exitDy=0;" edge="1" parent="1" source="4IQFh7qT-0xXZUofBKF6-4" target="4IQFh7qT-0xXZUofBKF6-25">
          <mxGeometry width="50" height="50" relative="1" as="geometry">
            <mxPoint x="780" y="540" as="sourcePoint" />
            <mxPoint x="1020" y="540" as="targetPoint" />
          </mxGeometry>
        </mxCell>
        <mxCell id="4IQFh7qT-0xXZUofBKF6-39" value="" style="endArrow=none;html=1;rounded=0;fontSize=20;startSize=14;endSize=14;sourcePerimeterSpacing=8;targetPerimeterSpacing=8;curved=1;entryX=-0.046;entryY=0.355;entryDx=0;entryDy=0;exitX=1;exitY=0.75;exitDx=0;exitDy=0;entryPerimeter=0;" edge="1" parent="1" source="4IQFh7qT-0xXZUofBKF6-4" target="4IQFh7qT-0xXZUofBKF6-27">
          <mxGeometry width="50" height="50" relative="1" as="geometry">
            <mxPoint x="790" y="550" as="sourcePoint" />
            <mxPoint x="1030" y="550" as="targetPoint" />
          </mxGeometry>
        </mxCell>
        <mxCell id="4IQFh7qT-0xXZUofBKF6-40" value="" style="endArrow=none;html=1;rounded=0;fontSize=20;startSize=14;endSize=14;sourcePerimeterSpacing=8;targetPerimeterSpacing=8;curved=1;entryX=0;entryY=0.5;entryDx=0;entryDy=0;exitX=1;exitY=0.75;exitDx=0;exitDy=0;" edge="1" parent="1" source="4IQFh7qT-0xXZUofBKF6-4" target="4IQFh7qT-0xXZUofBKF6-31">
          <mxGeometry width="50" height="50" relative="1" as="geometry">
            <mxPoint x="800" y="560" as="sourcePoint" />
            <mxPoint x="1040" y="560" as="targetPoint" />
          </mxGeometry>
        </mxCell>
        <mxCell id="4IQFh7qT-0xXZUofBKF6-41" value="alamat" style="ellipse;whiteSpace=wrap;html=1;hachureGap=4;fontSize=20;" vertex="1" parent="1">
          <mxGeometry x="290" y="950" width="120" height="80" as="geometry" />
        </mxCell>
        <mxCell id="4IQFh7qT-0xXZUofBKF6-42" value="prodi" style="ellipse;whiteSpace=wrap;html=1;hachureGap=4;fontSize=20;" vertex="1" parent="1">
          <mxGeometry x="580" y="950" width="120" height="80" as="geometry" />
        </mxCell>
        <mxCell id="4IQFh7qT-0xXZUofBKF6-43" value="no_telp" style="ellipse;whiteSpace=wrap;html=1;hachureGap=4;fontSize=20;" vertex="1" parent="1">
          <mxGeometry x="620" y="840" width="120" height="80" as="geometry" />
        </mxCell>
        <mxCell id="4IQFh7qT-0xXZUofBKF6-44" value="nama" style="ellipse;whiteSpace=wrap;html=1;hachureGap=4;fontSize=20;" vertex="1" parent="1">
          <mxGeometry x="350" y="1050" width="120" height="80" as="geometry" />
        </mxCell>
        <mxCell id="4IQFh7qT-0xXZUofBKF6-45" value="ID_daftar" style="ellipse;whiteSpace=wrap;html=1;hachureGap=4;fontSize=20;" vertex="1" parent="1">
          <mxGeometry x="435" y="1140" width="120" height="80" as="geometry" />
        </mxCell>
        <mxCell id="4IQFh7qT-0xXZUofBKF6-46" value="asal_sekolah" style="ellipse;whiteSpace=wrap;html=1;hachureGap=4;fontSize=20;" vertex="1" parent="1">
          <mxGeometry x="240" y="840" width="120" height="80" as="geometry" />
        </mxCell>
        <mxCell id="4IQFh7qT-0xXZUofBKF6-47" value="fakultas" style="ellipse;whiteSpace=wrap;html=1;hachureGap=4;fontSize=20;" vertex="1" parent="1">
          <mxGeometry x="210" y="730" width="120" height="80" as="geometry" />
        </mxCell>
        <mxCell id="4IQFh7qT-0xXZUofBKF6-48" value="" style="endArrow=none;html=1;rounded=0;fontSize=20;startSize=14;endSize=14;sourcePerimeterSpacing=8;targetPerimeterSpacing=8;curved=1;entryX=0.5;entryY=1;entryDx=0;entryDy=0;exitX=1;exitY=0.5;exitDx=0;exitDy=0;" edge="1" parent="1" source="4IQFh7qT-0xXZUofBKF6-46" target="4IQFh7qT-0xXZUofBKF6-2">
          <mxGeometry width="50" height="50" relative="1" as="geometry">
            <mxPoint x="465" y="840" as="sourcePoint" />
            <mxPoint x="515" y="790" as="targetPoint" />
          </mxGeometry>
        </mxCell>
        <mxCell id="4IQFh7qT-0xXZUofBKF6-49" value="" style="endArrow=none;html=1;rounded=0;fontSize=20;startSize=14;endSize=14;sourcePerimeterSpacing=8;targetPerimeterSpacing=8;curved=1;entryX=0.5;entryY=1;entryDx=0;entryDy=0;exitX=1;exitY=0;exitDx=0;exitDy=0;" edge="1" parent="1" source="4IQFh7qT-0xXZUofBKF6-44" target="4IQFh7qT-0xXZUofBKF6-2">
          <mxGeometry width="50" height="50" relative="1" as="geometry">
            <mxPoint x="500" y="950" as="sourcePoint" />
            <mxPoint x="550" y="900" as="targetPoint" />
          </mxGeometry>
        </mxCell>
        <mxCell id="4IQFh7qT-0xXZUofBKF6-50" value="" style="endArrow=none;html=1;rounded=0;fontSize=20;startSize=14;endSize=14;sourcePerimeterSpacing=8;targetPerimeterSpacing=8;curved=1;entryX=0.5;entryY=1;entryDx=0;entryDy=0;exitX=1;exitY=0.5;exitDx=0;exitDy=0;" edge="1" parent="1" source="4IQFh7qT-0xXZUofBKF6-41" target="4IQFh7qT-0xXZUofBKF6-2">
          <mxGeometry width="50" height="50" relative="1" as="geometry">
            <mxPoint x="490" y="940" as="sourcePoint" />
            <mxPoint x="540" y="890" as="targetPoint" />
          </mxGeometry>
        </mxCell>
        <mxCell id="4IQFh7qT-0xXZUofBKF6-51" value="" style="endArrow=none;html=1;rounded=0;fontSize=20;startSize=14;endSize=14;sourcePerimeterSpacing=8;targetPerimeterSpacing=8;curved=1;entryX=0.5;entryY=1;entryDx=0;entryDy=0;exitX=0.5;exitY=0;exitDx=0;exitDy=0;" edge="1" parent="1" source="4IQFh7qT-0xXZUofBKF6-45" target="4IQFh7qT-0xXZUofBKF6-2">
          <mxGeometry width="50" height="50" relative="1" as="geometry">
            <mxPoint x="620" y="980" as="sourcePoint" />
            <mxPoint x="670" y="930" as="targetPoint" />
          </mxGeometry>
        </mxCell>
        <mxCell id="4IQFh7qT-0xXZUofBKF6-52" value="" style="endArrow=none;html=1;rounded=0;fontSize=20;startSize=14;endSize=14;sourcePerimeterSpacing=8;targetPerimeterSpacing=8;curved=1;entryX=0.5;entryY=1;entryDx=0;entryDy=0;exitX=0;exitY=0;exitDx=0;exitDy=0;" edge="1" parent="1" source="4IQFh7qT-0xXZUofBKF6-43" target="4IQFh7qT-0xXZUofBKF6-2">
          <mxGeometry width="50" height="50" relative="1" as="geometry">
            <mxPoint x="630" y="990" as="sourcePoint" />
            <mxPoint x="680" y="940" as="targetPoint" />
          </mxGeometry>
        </mxCell>
        <mxCell id="4IQFh7qT-0xXZUofBKF6-53" value="" style="endArrow=none;html=1;rounded=0;fontSize=20;startSize=14;endSize=14;sourcePerimeterSpacing=8;targetPerimeterSpacing=8;curved=1;entryX=0.5;entryY=1;entryDx=0;entryDy=0;exitX=0;exitY=0.5;exitDx=0;exitDy=0;" edge="1" parent="1" source="4IQFh7qT-0xXZUofBKF6-23" target="4IQFh7qT-0xXZUofBKF6-2">
          <mxGeometry width="50" height="50" relative="1" as="geometry">
            <mxPoint x="640" y="1000" as="sourcePoint" />
            <mxPoint x="690" y="950" as="targetPoint" />
          </mxGeometry>
        </mxCell>
        <mxCell id="4IQFh7qT-0xXZUofBKF6-54" value="" style="endArrow=none;html=1;rounded=0;fontSize=20;startSize=14;endSize=14;sourcePerimeterSpacing=8;targetPerimeterSpacing=8;curved=1;entryX=0.5;entryY=1;entryDx=0;entryDy=0;exitX=0;exitY=0;exitDx=0;exitDy=0;" edge="1" parent="1" source="4IQFh7qT-0xXZUofBKF6-42" target="4IQFh7qT-0xXZUofBKF6-2">
          <mxGeometry width="50" height="50" relative="1" as="geometry">
            <mxPoint x="650" y="1010" as="sourcePoint" />
            <mxPoint x="700" y="960" as="targetPoint" />
          </mxGeometry>
        </mxCell>
        <mxCell id="4IQFh7qT-0xXZUofBKF6-55" value="" style="endArrow=none;html=1;rounded=0;fontSize=20;startSize=14;endSize=14;sourcePerimeterSpacing=8;targetPerimeterSpacing=8;curved=1;entryX=0.5;entryY=1;entryDx=0;entryDy=0;exitX=1;exitY=0.5;exitDx=0;exitDy=0;" edge="1" parent="1" source="4IQFh7qT-0xXZUofBKF6-47" target="4IQFh7qT-0xXZUofBKF6-2">
          <mxGeometry width="50" height="50" relative="1" as="geometry">
            <mxPoint x="660" y="1020" as="sourcePoint" />
            <mxPoint x="710" y="970" as="targetPoint" />
          </mxGeometry>
        </mxCell>
        <mxCell id="4IQFh7qT-0xXZUofBKF6-61" value="" style="endArrow=none;html=1;rounded=0;fontSize=20;startSize=14;endSize=14;sourcePerimeterSpacing=8;targetPerimeterSpacing=8;curved=1;entryX=0.5;entryY=1;entryDx=0;entryDy=0;exitX=0;exitY=0;exitDx=0;exitDy=0;" edge="1" parent="1" source="4IQFh7qT-0xXZUofBKF6-24" target="4IQFh7qT-0xXZUofBKF6-2">
          <mxGeometry width="50" height="50" relative="1" as="geometry">
            <mxPoint x="607.5735931288136" y="971.7157287525424" as="sourcePoint" />
            <mxPoint x="500.0000000000002" y="700" as="targetPoint" />
          </mxGeometry>
        </mxCell>
      </root>
    </mxGraphModel>
  </diagram>
</mxfile>
